<?xml version="1.0" standalone="no"?>
<!DOCTYPE svg PUBLIC "-//W3C//DTD SVG 20010904//EN"
 "http://www.w3.org/TR/2001/REC-SVG-20010904/DTD/svg10.dtd">
<svg version="1.0" xmlns="http://www.w3.org/2000/svg"
 width="581.000000pt" height="423.000000pt" viewBox="0 0 581.000000 423.000000"
 preserveAspectRatio="xMidYMid meet">

<g transform="translate(0.000000,423.000000) scale(0.100000,-0.100000)"
fill="#000000" stroke="none">
<path d="M131 3752 c52 -48 150 -141 219 -205 l125 -117 198 0 c116 0 196 -4
193 -9 -3 -5 -51 -42 -106 -81 -56 -40 -100 -76 -98 -80 2 -4 64 -64 138 -133
l135 -126 195 -1 195 0 -107 -77 c-59 -43 -106 -81 -105 -84 1 -3 229 -217
507 -477 486 -453 505 -470 513 -444 20 70 -16 280 -71 411 l-29 69 51 66 c40
51 55 64 71 60 11 -3 86 -8 167 -11 217 -8 385 24 515 97 l54 31 82 -41 c137
-67 214 -83 417 -84 96 -1 193 2 216 6 l40 8 55 -68 55 -67 -29 -64 c-46 -97
-68 -194 -74 -323 -3 -65 -3 -118 1 -118 10 0 1016 941 1016 950 0 5 -45 41
-101 82 l-101 73 194 5 195 5 136 129 c76 71 137 129 137 130 0 1 -47 35 -105
76 -57 41 -105 78 -105 83 0 4 88 7 196 7 l196 0 216 203 216 202 -645 3
c-542 2 -660 0 -743 -13 -180 -28 -369 -105 -501 -205 -37 -28 -196 -178 -353
-335 l-287 -284 -70 209 -70 210 -225 0 -226 0 -74 -75 -74 -75 92 0 c50 0 92
-1 92 -3 0 -3 -76 -231 -85 -256 -4 -10 -107 86 -313 291 -180 179 -333 323
-371 348 -80 53 -205 112 -296 139 -168 49 -205 51 -903 51 l-656 0 95 -88z"/>
<path d="M991 2614 c-70 -308 -69 -643 4 -934 119 -474 405 -880 815 -1155 73
-49 325 -179 385 -199 11 -4 -5 14 -35 40 -93 79 -312 304 -384 394 -154 193
-296 436 -365 625 -74 203 -123 481 -106 611 6 52 7 54 33 48 139 -30 169 -70
201 -260 36 -208 80 -339 176 -522 215 -406 615 -801 1074 -1058 l104 -58 71
39 c498 270 923 695 1136 1137 75 157 114 272 140 423 41 232 66 267 214 300
l29 6 -6 -163 c-4 -123 -12 -189 -30 -268 -104 -437 -385 -871 -802 -1239
l-70 -61 80 33 c220 93 408 216 583 381 330 312 538 721 598 1180 29 218 6
555 -51 745 l-17 54 -61 -60 c-34 -33 -264 -248 -512 -478 -247 -230 -463
-430 -478 -445 l-29 -27 33 -154 c29 -131 34 -174 34 -289 0 -133 -1 -137 -33
-202 -20 -41 -49 -81 -75 -103 -59 -51 -710 -375 -753 -375 -17 0 -203 85
-482 221 -197 96 -231 116 -281 167 -82 82 -104 143 -104 287 0 102 13 183 68
430 3 16 -99 116 -490 480 -272 253 -517 479 -543 502 l-49 43 -22 -96z"/>
</g>
</svg>
